Coordinates
version=1
nRows=17
nColumns=24
inDegrees=yes

Units are S.I. units (second, meters, Newtons, ...)
Angles are in degrees.

endheader
time	pelvis_tilt	pelvis_list	pelvis_rotation	pelvis_tx	pelvis_ty	pelvis_tz	hip_flexion_r	hip_adduction_r	hip_rotation_r	knee_angle_r	ankle_angle_r	subtalar_angle_r	mtp_angle_r	hip_flexion_l	hip_adduction_l	hip_rotation_l	knee_angle_l	ankle_angle_l	subtalar_angle_l	mtp_angle_l	lumbar_extension	lumbar_bending	lumbar_rotation
      1.03633333	     -5.76985422	     -0.22166617	      0.61434896	      0.50354420	      0.98893432	      0.31815341	     19.84404221	      3.96668014	      2.15147108	    -28.03037657	     14.83036659	    -10.99365013	      0.97910679	     16.73037776	     -1.70783002	     -0.84643770	    -70.74345832	     -0.06596452	     -5.72868898	      4.36685448	     -5.32557356	      8.64080236	     -4.85251801
      1.04050000	     -5.68155237	     -0.09754248	      0.49007908	      0.50805115	      0.99013730	      0.31856496	     19.23613788	      3.87581888	      2.25088222	    -27.55816485	     14.85854772	    -10.90419624	      0.99487913	     17.26078102	     -1.65328732	     -1.05899730	    -70.62107546	      0.63161302	     -5.57533351	      4.24531964	     -5.47351535	      8.43753829	     -4.53582923
      1.04466667	     -5.62020675	      0.04788674	      0.36041447	      0.51253223	      0.99125820	      0.31892944	     18.67507222	      3.75454791	      2.33958926	    -27.11731882	     14.86376706	    -10.80276369	      1.00593890	     17.81094902	     -1.56503628	     -1.26964718	    -70.45243808	      1.32671685	     -5.50714330	      4.17091371	     -5.59035964	      8.23763121	     -4.32222368
      1.04883333	     -5.54840457	      0.19025556	      0.24015097	      0.51702116	      0.99236845	      0.31930550	     18.09391528	      3.63548382	      2.43613445	    -26.65926773	     14.90332101	    -10.69058419	      1.02003359	     18.34268074	     -1.48911491	     -1.47437047	    -70.23844870	      1.98616606	     -5.34509581	      4.08416683	     -5.72032710	      8.01158071	     -4.02919031
      1.05300000	     -5.45484862	      0.30138345	      0.11060828	      0.52156695	      0.99350778	      0.31968238	     17.46817880	      3.54837737	      2.52686747	    -26.15488429	     14.94686681	    -10.60424541	      1.04055775	     18.83228999	     -1.45474606	     -1.68138108	    -69.97073701	      2.61470172	     -5.15793210	      3.94834734	     -5.85078394	      7.81085554	     -3.64630793
      1.05716667	     -5.38364808	      0.42939265	     -0.02261289	      0.52607172	      0.99457107	      0.32002210	     16.88235601	      3.43996740	      2.63286416	    -25.67661456	     14.94589535	    -10.52299665	      1.07603678	     19.33883169	     -1.39127664	     -1.88211588	    -69.65863251	      3.21444484	     -5.08441469	      3.69632345	     -5.97581177	      7.62189335	     -3.27169078
      1.06133333	     -5.30710044	      0.56214178	     -0.14797393	      0.53057014	      0.99558249	      0.32037072	     16.30085453	      3.32268604	      2.71971009	    -25.21883679	     14.98793966	    -10.42421690	      1.09708555	     19.83467809	     -1.33064879	     -2.08056220	    -69.31372830	      3.81336473	     -4.93915804	      3.57272664	     -6.08694060	      7.40190973	     -3.06824104
      1.06550000	     -5.22249604	      0.66868512	     -0.28456748	      0.53507358	      0.99658494	      0.32069620	     15.69983917	      3.23182759	      2.82485632	    -24.73047145	     14.96611704	    -10.35823264	      1.15210152	     20.31158368	     -1.29811789	     -2.27926564	    -68.92805034	      4.36177968	     -4.90393016	      3.21439429	     -6.22684448	      7.21033711	     -2.66385088
      1.06966667	     -5.13397043	      0.81264607	     -0.41399778	      0.53958692	      0.99755886	      0.32098927	     15.10966628	      3.09217503	      2.90821184	    -24.27869049	     15.02159453	    -10.23705990	      1.17472430	     20.76565230	     -1.21586749	     -2.46195779	    -68.48140761	      4.89755748	     -4.77710465	      3.09459235	     -6.34762999	      7.01588967	     -2.49351794
      1.07383333	     -5.03822555	      0.94436792	     -0.55071850	      0.54410426	      0.99851852	      0.32127813	     14.50680542	      2.96500382	      3.00164837	    -23.81028882	     15.04013908	    -10.13212857	      1.19774976	     21.20124074	     -1.14853717	     -2.64591222	    -67.99363449	      5.38401090	     -4.73210443	      2.96685044	     -6.48655736	      6.81624297	     -2.20728073
      1.07800000	     -4.93077445	      1.06113724	     -0.68781306	      0.54861987	      0.99943790	      0.32155117	     13.89164035	      2.85003937	      3.09400843	    -23.34060226	     15.05743069	    -10.03005079	      1.22055731	     21.61640076	     -1.09567289	     -2.81807729	    -67.47349707	      5.84349652	     -4.70256307	      2.84223834	     -6.63819826	      6.63556881	     -1.93108551
      1.08216667	     -4.85818713	      1.19951804	     -0.83400870	      0.55312274	      1.00027027	      0.32179686	     13.33167292	      2.70812855	      3.18919453	    -22.90241771	     15.04525537	     -9.91147376	      1.23549033	     22.05640800	     -1.01177810	     -2.98502448	    -66.90876412	      6.27672775	     -4.72655347	      2.76395195	     -6.74904473	      6.45152308	     -1.72506431
      1.08633333	     -4.73965924	      1.30384915	     -0.96799030	      0.55765571	      1.00112906	      0.32204529	     12.70012193	      2.59975513	      3.27834420	    -22.42282510	     15.10250062	     -9.81468158	      1.25886619	     22.43818939	     -0.96794136	     -3.13279081	    -66.31002605	      6.64071240	     -4.71553257	      2.64138131	     -6.91216043	      6.27034437	     -1.37581854
      1.09050000	     -4.67917919	      1.43305625	     -1.11438587	      0.56217415	      1.00185984	      0.32225922	     12.15564519	      2.46094586	      3.36719581	    -21.98806776	     15.08834003	     -9.69411674	      1.27251033	     22.86954245	     -0.88804914	     -3.27551002	    -65.67099366	      7.00222361	     -4.77481556	      2.56907765	     -6.99987347	      6.09864088	     -1.17872981
      1.09466667	     -4.56494788	      1.53642253	     -1.24908053	      0.56670871	      1.00262678	      0.32246977	     11.53513766	      2.34571602	      3.45367037	    -21.52019884	     15.15592568	     -9.59039163	      1.29456024	     23.23285011	     -0.83232667	     -3.38934357	    -64.99547493	      7.28924191	     -4.81376318	      2.45729457	     -7.15807653	      5.92991941	     -0.83853084
      1.09883333	     -4.46958281	      1.65060874	     -1.39283636	      0.57123244	      1.00331581	      0.32266550	     10.94831063	      2.21559088	      3.53616030	    -21.07412628	     15.19011829	     -9.47343968	      1.31697179	     23.60593936	     -0.76333644	     -3.50471745	    -64.28565411	      7.56684748	     -4.89254769	      2.33866278	     -7.29416022	      5.74692842	     -0.54241506
      1.10300000	     -4.35998579	      1.76517832	     -1.53418873	      0.57576565	      1.00399211	      0.32282775	     10.34646533	      2.07832160	      3.60796883	    -20.62881192	     15.22613566	     -9.34844695	      1.33685463	     23.94874863	     -0.68410664	     -3.59877573	    -63.53336544	      7.80607353	     -4.98847095	      2.23522268	     -7.44193772	      5.58016511	     -0.28327931
